<svg width="309" height="51" viewBox="0 0 309 51" fill="none" xmlns="http://www.w3.org/2000/svg">
<path d="M22.311 0.321487C22.311 0.321487 21.1152 0.0631533 20.5818 0.01732C20.0485 -0.0285134 19.3402 0.01732 18.8985 0.146487C18.0652 0.250653 10.2068 4.74649 7.25684 6.66315C6.97768 6.81315 6.71101 6.99649 6.45684 7.20899C6.26518 7.35065 6.15684 7.45065 6.14434 7.49232C4.99434 8.62982 4.25684 10.3882 4.25684 12.359C4.25684 14.0673 4.81101 15.6132 5.70268 16.7382C6.09851 17.234 6.56101 17.6465 7.06934 17.9548C7.15268 18.0048 7.24018 18.0548 7.32768 18.0965L12.4027 20.9173L19.5068 24.8673L19.4652 16.8923C19.4652 16.8923 19.511 6.24649 19.5568 5.54649C19.6027 4.85482 19.9568 3.38399 20.711 2.21732C21.2027 1.52982 22.311 0.321487 22.311 0.321487Z" fill="url(#paint0_radial_2319_1638)"/>
<path d="M45.4943 10.7007C45.4943 10.7007 45.1318 9.55899 44.9068 9.08816C44.6818 8.61732 44.2902 8.03816 43.9568 7.72566C43.4527 7.07566 35.5527 2.64649 32.3818 1.10066C32.1068 0.938156 31.811 0.800656 31.4985 0.69649C31.2777 0.604823 31.136 0.55899 31.0902 0.575656C29.5068 0.167323 27.3443 0.300656 25.5902 1.27566C24.0693 2.12149 23.1943 3.47149 22.6402 4.78399C22.3943 5.36316 22.2568 5.95899 22.236 6.54649C22.2318 6.64232 22.2318 6.73816 22.236 6.83399V12.5298V20.5048L29.3193 16.5173C29.3193 16.5173 38.8235 11.2798 39.4693 10.9673C40.1068 10.6632 41.5943 10.234 43.0068 10.2923C43.8693 10.359 45.4943 10.7007 45.4943 10.7007Z" fill="url(#paint1_radial_2319_1638)"/>
<path d="M47.9652 35.1548C47.9652 35.1548 48.7902 34.2673 49.0902 33.8382C49.3902 33.409 49.7027 32.784 49.8068 32.3465C50.1235 31.5923 50.0068 22.709 49.7527 19.259C49.7568 18.9465 49.7235 18.6298 49.661 18.3132C49.6277 18.0798 49.5943 17.9382 49.561 17.909C49.1152 16.3757 47.9152 14.8798 46.1568 13.9048C44.6318 13.059 42.9818 12.7632 41.5402 12.9673C40.9027 13.059 40.3068 13.2423 39.7777 13.5257C39.6902 13.5715 39.6068 13.6215 39.5235 13.6715L34.4985 16.5757L27.461 20.6423L34.5902 24.5507C34.5902 24.5507 44.0568 29.8548 44.661 30.2382C45.2568 30.6173 46.3902 31.6465 47.0568 32.8632C47.4318 33.6132 47.9652 35.1548 47.9652 35.1548Z" fill="url(#paint2_radial_2319_1638)"/>
<path d="M27.6277 49.709C27.6277 49.709 28.8277 49.9548 29.361 49.9923C29.8943 50.0298 30.6027 49.9757 31.0443 49.8423C31.8735 49.7257 39.6735 45.1382 42.5985 43.184C42.8777 43.0298 43.1402 42.8423 43.3902 42.6298C43.5777 42.484 43.6902 42.384 43.6985 42.3423C44.8318 41.1923 45.5485 39.4257 45.5235 37.4548C45.5027 35.7465 44.9277 34.2048 44.0193 33.0965C43.6193 32.6048 43.1485 32.1965 42.636 31.8965C42.5527 31.8465 42.4652 31.8007 42.3777 31.7548L37.2693 28.9923L30.1152 25.1257L30.2568 33.1007C30.2568 33.1007 30.3485 43.7465 30.311 44.4465C30.2735 45.1382 29.9402 46.6132 29.1985 47.7882C28.7235 48.484 27.6277 49.709 27.6277 49.709Z" fill="url(#paint3_radial_2319_1638)"/>
<path d="M4.30268 39.6798C4.30268 39.6798 4.67351 40.8215 4.90268 41.2882C5.13185 41.759 5.52768 42.334 5.86518 42.6423C6.37768 43.2882 14.3068 47.659 17.4902 49.1798C17.7652 49.3382 18.061 49.4715 18.3735 49.5798C18.5943 49.6715 18.736 49.7132 18.7818 49.7007C20.3652 50.0965 22.2943 49.8382 24.0443 48.8465C25.561 47.9882 26.6527 46.7465 27.1985 45.4256C27.4402 44.8423 27.5735 44.2465 27.5902 43.6632C27.5943 43.5673 27.5902 43.4715 27.586 43.3757L27.5402 37.6798L27.4818 29.709L20.4318 33.7507C20.4318 33.7507 10.9693 39.059 10.3235 39.3757C9.68601 39.684 8.20685 40.1256 6.79018 40.0756C5.93185 40.009 4.30268 39.6798 4.30268 39.6798Z" fill="url(#paint4_radial_2319_1638)"/>
<path d="M2.10268 15.0548C2.10268 15.0548 1.27351 15.934 0.965179 16.3631C0.656846 16.7923 0.340179 17.409 0.236012 17.8506C-0.0889878 18.6048 -0.0473211 27.4881 0.173512 30.9381C0.165179 31.2506 0.194346 31.5673 0.256846 31.884C0.286012 32.1173 0.319346 32.259 0.352679 32.2881C0.786012 33.8256 1.97351 35.3298 3.72351 36.3215C5.24018 37.1798 6.89018 37.4881 8.33185 37.3006C8.96935 37.2173 9.56935 37.034 10.0985 36.759C10.186 36.7131 10.2693 36.6631 10.3527 36.6131L15.4027 33.7506L22.4735 29.7465L15.3777 25.7798C15.3777 25.7798 5.95685 20.3965 5.35685 20.009C4.76518 19.6256 3.64018 18.5881 2.98185 17.3673C2.61935 16.5965 2.10268 15.0548 2.10268 15.0548Z" fill="url(#paint5_radial_2319_1638)"/>
<path d="M84.0722 24.9743V32.1907C84.0722 34.0464 83.7113 35.7732 83.0155 37.3454C82.3454 38.9433 81.4175 40.3351 80.1804 41.5722C78.9948 42.7578 77.5773 43.7114 75.9536 44.4072C74.3557 45.0773 72.6546 45.4124 70.8505 45.4124H55.5412V37.0877H70.8505C72.1907 37.0877 73.299 36.6237 74.2268 35.6959C75.1804 34.7423 75.6701 33.5567 75.6701 32.1907V24.9743H84.0722V24.9743ZM84.0722 6.88147V15.2062H68.7629C67.3969 15.2062 66.2371 15.6959 65.2577 16.6495C64.3299 17.6031 63.866 18.7629 63.866 20.1031V27.3196H55.5412V20.1031C55.5412 18.299 55.9021 16.598 56.5979 15C57.2938 13.3763 58.2474 11.9588 59.433 10.7732C60.6186 9.56188 62.0103 8.60827 63.6082 7.93817C65.232 7.24229 66.9588 6.88147 68.7629 6.88147H84.0722V6.88147Z" fill="#183A5B"/>
<path d="M117.01 15.2062H88.2216V6.88147H117.01V15.2062ZM106.753 17.0877V45.3866H98.4794V17.0877H106.753Z" fill="#183A5B"/>
<path d="M132.655 5.15466L149.356 45.4124H127.088L130.541 37.0877H137.036C136.624 36.1598 136.237 35.2835 135.876 34.4846C135.541 33.6598 135.206 32.8866 134.871 32.0877C134.536 31.2629 134.175 30.4382 133.814 29.5877C133.479 28.7371 133.093 27.7835 132.655 26.7011L124.82 45.4124H115.825L132.655 5.15466Z" fill="#183A5B"/>
<path d="M179.794 45.4124H170.129L163.196 33.3763H159.433V45.4124H151.057V24.9742H165.722C167.088 24.9742 168.247 24.5103 169.175 23.5825C170.129 22.6546 170.619 21.5206 170.619 20.1289C170.619 18.7629 170.129 17.6031 169.175 16.6237C168.247 15.6701 167.113 15.1804 165.722 15.1804H151.057V6.93298H165.722C167.835 6.93298 169.691 7.31958 171.34 8.09278C172.964 8.8402 174.356 9.81958 175.515 11.0825C176.675 12.3454 177.526 13.7887 178.119 15.4124C178.711 17.0103 178.995 18.634 178.995 20.3093C178.995 22.5773 178.428 24.7165 177.32 26.7526C176.211 28.7887 174.433 30.4639 171.985 31.7526L179.794 45.4124Z" fill="#183A5B"/>
<path d="M197.32 6.93298C199.124 6.93298 200.825 7.29381 202.423 7.98968C204.021 8.65979 205.412 9.58762 206.598 10.8247C207.809 12.0103 208.763 13.4278 209.433 15.0515C210.129 16.6495 210.49 18.3505 210.49 20.1546C210.49 22.0103 210.129 23.7371 209.433 25.3093C208.763 26.9072 207.835 28.299 206.598 29.5361C205.412 30.7216 204.021 31.6752 202.423 32.3711C200.825 33.0412 199.124 33.3763 197.32 33.3763H191.211V45.4124H182.887V24.9742H197.32C198.66 24.9742 199.794 24.5103 200.696 23.5825C201.649 22.6289 202.139 21.4691 202.139 20.1289C202.139 18.7629 201.649 17.6031 200.696 16.6237C199.768 15.6701 198.634 15.1804 197.32 15.1804H182.887V6.93298H197.32Z" fill="#183A5B"/>
<path d="M227.5 5.15466L244.201 45.4124H221.933L225.387 37.0877H231.881C231.469 36.1598 231.082 35.2835 230.722 34.4846C230.387 33.6598 230.052 32.8866 229.716 32.0877C229.381 31.2629 229.021 30.4382 228.66 29.5877C228.325 28.7371 227.938 27.7835 227.5 26.7011L219.665 45.4124H210.67L227.5 5.15466Z" fill="#183A5B"/>
<path d="M271.83 37.0876V45.4124H263.402C260.747 45.4124 258.247 44.9227 255.902 43.9175C253.582 42.9124 251.521 41.5464 249.742 39.8196C248.015 38.0928 246.624 36.0567 245.644 33.7113C244.639 31.3917 244.149 28.8917 244.149 26.2113C244.149 23.5567 244.639 21.0567 245.644 18.7113C246.649 16.3917 248.015 14.3557 249.742 12.6031C251.521 10.8247 253.582 9.43298 255.902 8.42783C258.222 7.42267 260.722 6.93298 263.402 6.93298H271.83V15.2577H263.402C261.881 15.2577 260.464 15.5412 259.124 16.134C257.784 16.701 256.624 17.4742 255.619 18.4536C254.665 19.4072 253.892 20.567 253.299 21.9072C252.732 23.2474 252.474 24.6649 252.474 26.1856C252.474 27.7062 252.758 29.1237 253.299 30.4639C253.892 31.7526 254.665 32.9124 255.619 33.9175C256.624 34.8711 257.784 35.6443 259.124 36.2371C260.464 36.8041 261.881 37.0618 263.402 37.0618H271.83V37.0876Z" fill="#183A5B"/>
<path d="M308.866 6.88147L295.979 26.134C296.985 27.6031 298.015 29.1753 299.098 30.8505C300.206 32.4743 301.314 34.1237 302.423 35.799C303.531 37.4743 304.613 39.1237 305.696 40.7475C306.804 42.3712 307.861 43.9176 308.866 45.4124H298.866L286.031 26.1598L298.866 6.90724H308.866V6.88147ZM285.49 6.88147V45.4124H277.216V6.88147H285.49Z" fill="#183A5B"/>
<defs>
<radialGradient id="paint0_radial_2319_1638" cx="0" cy="0" r="1" gradientUnits="userSpaceOnUse" gradientTransform="translate(19.3318 24.3757) rotate(-112.974) scale(26.4749 25.8147)">
<stop offset="0.2192" stop-color="#ABDF9B"/>
<stop offset="0.4749" stop-color="#7DB488"/>
<stop offset="0.777643" stop-color="#417D70"/>
<stop offset="1" stop-color="#2A6767"/>
</radialGradient>
<radialGradient id="paint1_radial_2319_1638" cx="0" cy="0" r="1" gradientUnits="userSpaceOnUse" gradientTransform="translate(22.2485 20.5007) rotate(-51.7636) scale(22.0146 21.4656)">
<stop stop-color="#2A6767"/>
<stop offset="0.00440524" stop-color="#2B6868"/>
<stop offset="0.1503" stop-color="#528C77"/>
<stop offset="0.3006" stop-color="#72AA84"/>
<stop offset="0.4561" stop-color="#8BC18E"/>
<stop offset="0.6178" stop-color="#9DD295"/>
<stop offset="0.7898" stop-color="#A8DC9A"/>
<stop offset="0.9894" stop-color="#ABDF9B"/>
</radialGradient>
<radialGradient id="paint2_radial_2319_1638" cx="0" cy="0" r="1" gradientUnits="userSpaceOnUse" gradientTransform="translate(27.4568 20.8757) rotate(7.56118) scale(23.7482 26.6286)">
<stop offset="0.3066" stop-color="#ABDF9B"/>
<stop offset="0.4038" stop-color="#A4D998"/>
<stop offset="0.5415" stop-color="#92C891"/>
<stop offset="0.7033" stop-color="#73AB85"/>
<stop offset="0.8822" stop-color="#498474"/>
<stop offset="0.9983" stop-color="#2A6767"/>
</radialGradient>
<radialGradient id="paint3_radial_2319_1638" cx="0" cy="0" r="1" gradientUnits="userSpaceOnUse" gradientTransform="translate(27.9985 23.0007) rotate(62.8745) scale(24.7656 30.1862)">
<stop offset="0.00214815" stop-color="#2A6767"/>
<stop offset="0.2471" stop-color="#5B947B"/>
<stop offset="0.4989" stop-color="#86BD8C"/>
<stop offset="0.6955" stop-color="#A1D697"/>
<stop offset="0.8111" stop-color="#ABDF9B"/>
</radialGradient>
<radialGradient id="paint4_radial_2319_1638" cx="0" cy="0" r="1" gradientUnits="userSpaceOnUse" gradientTransform="translate(27.5818 29.709) rotate(131.526) scale(25.7683 33.3912)">
<stop offset="0.2081" stop-color="#ABDF9B"/>
<stop offset="0.324" stop-color="#A0D597"/>
<stop offset="0.5278" stop-color="#83BA8B"/>
<stop offset="0.746748" stop-color="#538E78"/>
<stop offset="1" stop-color="#2A6767"/>
</radialGradient>
<radialGradient id="paint5_radial_2319_1638" cx="0" cy="0" r="1" gradientUnits="userSpaceOnUse" gradientTransform="translate(26.4985 31.0006) rotate(-169.751) scale(26.9297 31.7732)">
<stop offset="0.0668981" stop-color="#2A6767"/>
<stop offset="0.2193" stop-color="#488373"/>
<stop offset="0.4627" stop-color="#73AB84"/>
<stop offset="0.6826" stop-color="#92C791"/>
<stop offset="0.8691" stop-color="#A4D998"/>
<stop offset="1" stop-color="#ABDF9B"/>
</radialGradient>
</defs>
</svg>
